<?xml version="1.0" encoding="UTF-8"?>
<svg version="1.1" xmlns="http://www.w3.org/2000/svg" width="512" height="512">
<path d="M0 0 C8.86735015 6.87215742 16.56062751 15.23787603 24.43414307 23.20385742 C26.37925173 25.16501578 28.33726893 27.11302251 30.29548454 29.06107998 C32.66589465 31.42278943 35.02425798 33.7963673 37.38354492 36.16918945 C38.24720673 37.02991562 39.11086853 37.89064178 40.0007019 38.77745056 C52.84679771 51.82264386 60.53504064 65.91560397 61.39135742 84.4230957 C61.00433207 101.33126578 54.03068214 114.69596963 42.50463867 126.60668945 C37.96004076 131.40812492 35.88347882 134.7203814 35.70385742 141.4230957 C35.66647461 142.32415039 35.6290918 143.22520508 35.59057617 144.15356445 C36.66227029 151.91105673 41.96382119 158.37489771 46.39135742 164.6105957 C47.00422607 165.47837646 47.61709473 166.34615723 48.24853516 167.24023438 C60.05716253 183.83080558 72.59255058 200.30091575 87.26635742 214.4855957 C89.08476873 216.30400701 90.73333914 218.208037 92.39135742 220.1730957 C95.74633003 224.06577273 99.43793513 227.43492422 103.29370117 230.82543945 C105.66172513 232.92166726 107.9780598 235.06256112 110.28417969 237.22631836 C116.61951895 243.14319756 123.26218977 248.55753202 130.15258789 253.81323242 C131.41232142 254.7746167 132.6690901 255.73989647 133.9230957 256.70874023 C141.46094476 262.53232123 149.12258643 268.11971907 157.07885742 273.3605957 C158.11393433 274.05282227 158.11393433 274.05282227 159.16992188 274.7590332 C165.08399949 278.58134496 170.75328677 281.03985748 177.96948242 279.8371582 C183.15965035 278.31180351 186.97473615 275.52497278 190.34838867 271.34887695 C192.96791911 268.11883534 196.01411214 265.82078384 199.51635742 263.6105957 C200.12294189 263.22452148 200.72952637 262.83844727 201.35449219 262.44067383 C215.11492396 254.04073154 230.59249802 252.59807393 246.07885742 256.1496582 C255.2851339 258.52357527 262.9663564 262.84681411 269.80541992 269.37231445 C270.35083435 269.88468658 270.89624878 270.39705872 271.45819092 270.92495728 C273.32102709 272.68488305 275.17040431 274.45797166 277.01635742 276.2355957 C277.7062677 276.89981537 278.39617798 277.56403503 279.10699463 278.24838257 C283.73238568 282.71661393 288.31868817 287.22266784 292.88354492 291.75268555 C294.4739238 293.32644366 296.06965754 294.89480847 297.6706543 296.45776367 C313.39737162 311.81538457 326.21745817 326.14724098 326.51635742 349.2355957 C326.43284428 357.44363508 325.29150655 364.63849346 322.01635742 372.2355957 C321.4672168 373.57557617 321.4672168 373.57557617 320.90698242 374.94262695 C316.8583994 383.47713994 310.20952187 389.91077485 303.65844727 396.56274414 C302.28714446 397.95973593 300.93969605 399.38009196 299.59838867 400.8059082 C279.56298457 421.78105921 251.64168232 436.51941114 222.34838867 437.47387695 C187.72847694 438.0645787 162.94011839 426.98599789 135.01635742 407.2355957 C134.26692871 406.70659668 133.5175 406.17759766 132.74536133 405.63256836 C115.26243253 393.24963205 98.23237073 380.25197948 81.70336914 366.62280273 C80.17992583 365.37009581 78.64749107 364.12834311 77.11401367 362.88793945 C66.22853819 354.08045489 55.68588984 344.88183606 45.44311523 335.33618164 C42.63856449 332.72336525 39.80611319 330.16216706 36.89135742 327.6730957 C33.09700619 324.3990669 29.59947984 320.84673424 26.08227539 317.28222656 C23.47715854 314.65500187 20.83169489 312.13555551 18.01635742 309.7355957 C10.74873094 303.51259726 4.09351208 296.6049502 -2.10864258 289.3293457 C-4.46710727 286.6957268 -6.96829879 284.2175481 -9.48364258 281.7355957 C-13.20962678 278.05412519 -16.78220501 274.30264426 -20.18286133 270.31762695 C-22.3568846 267.80405992 -24.60754746 265.36783341 -26.85864258 262.9230957 C-30.92904314 258.46036738 -34.78541167 253.8730157 -38.57739258 249.1730957 C-41.28144647 245.8720429 -44.06523678 242.64837967 -46.85864258 239.4230957 C-52.23069207 233.19036847 -57.37677202 226.81402008 -62.39672852 220.29516602 C-63.5325907 218.82099165 -64.6716267 217.34926058 -65.81274414 215.87915039 C-74.29023742 204.9517587 -82.42858658 193.88074081 -90.15161133 182.4074707 C-92.45160513 178.9945274 -94.83864267 175.66271208 -97.29614258 172.3605957 C-113.20351731 150.63834029 -122.4267627 127.63218816 -122.29614258 100.4855957 C-122.29050293 99.25421875 -122.28486328 98.0228418 -122.27905273 96.75415039 C-121.84473447 64.11577752 -107.08753635 37.72651048 -84.31835938 15.12426758 C-82.53924506 13.35373145 -80.77974872 11.5651572 -79.02075195 9.7746582 C-57.17081652 -12.2117187 -26.41154623 -19.19615142 0 0 Z M-51.98364258 10.2355957 C-52.74805664 10.69063477 -53.5124707 11.14567383 -54.30004883 11.61450195 C-78.95459715 27.83757116 -96.65940855 52.88169402 -103.98364258 81.2355957 C-108.76767862 106.52849258 -103.68075131 132.18788427 -89.42114258 153.4855957 C-88.109993 155.38959533 -86.78265027 157.28073571 -85.44506836 159.16625977 C-83.87338067 161.39172333 -82.33155298 163.63606912 -80.79223633 165.8840332 C-72.79792366 177.50467959 -64.38238685 188.7671417 -55.76245117 199.92944336 C-54.19013261 201.96788985 -52.62547487 204.01178524 -51.06567383 206.05981445 C-40.85789887 219.44898376 -30.06646851 232.39407284 -18.92114258 245.01293945 C-17.32217951 246.84723377 -15.74295664 248.69454491 -14.17114258 250.55200195 C-9.26236442 256.34417371 -4.3777527 262.03767427 1.0947113 267.3127594 C2.91738684 269.13656382 4.59713229 271.01702896 6.27050781 272.97753906 C9.8980002 277.15252993 13.72179533 281.08584441 17.63745117 284.98950195 C18.34104263 285.69405014 19.04463409 286.39859833 19.76954651 287.12449646 C21.2465039 288.60212937 22.72470485 290.07852027 24.20410156 291.55371094 C26.44800827 293.79226052 28.68652447 296.03610043 30.92456055 298.28051758 C32.3702036 299.72549974 33.81615688 301.17017162 35.26245117 302.61450195 C35.92103622 303.27511124 36.57962128 303.93572052 37.25816345 304.61634827 C41.11141036 308.45054215 45.06949256 312.1071838 49.1910553 315.65184021 C52.20582122 318.26765489 55.10506315 321.00587134 58.01635742 323.7355957 C62.94151749 328.32721028 67.89236988 332.86541639 73.01635742 337.2355957 C74.44141602 338.46149414 74.44141602 338.46149414 75.89526367 339.7121582 C82.60916014 345.46177554 89.45920845 351.00220154 96.43432617 356.4309082 C98.8310036 358.2988395 101.20694251 360.18897056 103.56713867 362.1027832 C118.86569661 374.5059566 134.83691067 386.01328947 151.01635742 397.2355957 C151.66588379 397.68950684 152.31541016 398.14341797 152.98461914 398.61108398 C177.01231353 415.34736493 202.41080851 424.07200094 232.01245117 419.58325195 C252.07540751 415.85547481 268.78879311 405.97736389 283.35229492 391.84838867 C284.52592384 390.7109191 285.70626902 389.58035935 286.89135742 388.45483398 C303.00312584 373.27790605 303.00312584 373.27790605 309.97338867 352.8137207 C310.17995736 340.41959921 305.53995128 329.65255408 297.14770508 320.63818359 C295.25583668 318.72722509 293.35357278 316.83671229 291.43041992 314.95825195 C290.40330966 313.93473114 289.37732037 312.91008433 288.35238647 311.88438416 C286.21827508 309.75492416 284.07460673 307.63579226 281.92260742 305.52441406 C279.18164885 302.83458249 276.46101841 300.12526065 273.7466526 297.4086237 C271.63525219 295.2980434 269.51609073 293.19540269 267.39429855 291.09527397 C266.38876208 290.09919524 265.38495443 289.10136776 264.38301468 288.10167122 C254.6688433 278.43305649 246.02491324 272.1887915 232.07885742 270.8605957 C219.35339459 271.50985401 209.15684861 276.69955235 200.45385742 285.8605957 C193.2757925 293.37133387 184.34105155 296.89738423 174.05541992 297.37231445 C139.5481039 296.57856263 100.76231303 252.99411873 77.64135742 229.9855957 C76.9873999 229.33631104 76.33344238 228.68702637 75.65966797 228.01806641 C71.24326774 223.58704047 67.09455433 218.97774148 63.01635742 214.2355957 C62.05504434 213.1410313 61.09285351 212.04723694 60.12963867 210.9543457 C49.30806834 198.57101733 39.7306991 185.47753063 30.51635742 171.8605957 C29.83347656 170.86237793 29.1505957 169.86416016 28.44702148 168.83569336 C21.15247568 157.9192912 16.43717681 147.38271228 18.70385742 134.0480957 C21.05903983 124.33679162 26.23897711 118.42593468 33.01635742 111.2355957 C40.46812311 103.14724702 44.63843362 93.53861945 44.26245117 82.3918457 C42.62093969 68.00907848 34.7516101 58.3364295 24.78979492 48.4074707 C23.79535701 47.40523151 22.80135748 46.40255717 21.80776978 45.3994751 C19.73508978 43.31198035 17.65497607 41.23225911 15.56958008 39.1574707 C12.9235502 36.52302305 10.30095782 33.86654263 7.68402672 31.203228 C5.64055771 29.1300227 3.58310822 27.07112627 1.52162552 25.01584625 C0.54988511 24.04309271 -0.41726282 23.06572498 -1.37926102 22.08333588 C-10.95601789 12.32865002 -20.81170356 6.05173651 -34.67114258 5.9230957 C-41.34562567 5.9230957 -46.3295707 6.60309142 -51.98364258 10.2355957 Z " fill="#222A3F" transform="translate(153.983642578125,42.764404296875)"/>
<path d="M0 0 C17.33452167 7.6383731 33.10311318 16.98072438 47.96484375 28.72460938 C48.87621094 29.44261719 49.78757812 30.160625 50.7265625 30.90039062 C60.54095775 38.78270806 69.89656636 47.0391988 77.96484375 56.72460938 C79.14046875 58.03365234 79.14046875 58.03365234 80.33984375 59.36914062 C108.11073874 90.53528811 126.41799103 131.21243456 130.96484375 172.72460938 C131.07441406 173.66175781 131.18398438 174.59890625 131.296875 175.56445312 C131.90256096 181.5809337 132.14181098 187.61863876 132.27734375 193.66210938 C132.32205811 194.74540527 132.32205811 194.74540527 132.36767578 195.85058594 C132.40753688 199.47879414 132.07291354 201.54846965 130.16015625 204.66601562 C127.13524269 207.50254489 125.067327 207.72460938 120.96484375 207.72460938 C118.01728643 206.37898538 116.42207103 205.63906393 114.96484375 202.72460938 C114.78874681 200.87936365 114.66642804 199.02887016 114.5703125 197.17773438 C111.31784814 140.85457114 90.41838931 89.98246894 47.96484375 51.72460938 C43.45031148 47.8578489 38.72811717 44.27663535 33.96484375 40.72460938 C33.40571289 40.29937988 32.84658203 39.87415039 32.27050781 39.43603516 C-1.58946504 13.72973352 -42.1499474 2.30377992 -84.27734375 1.13085938 C-87.41697512 0.6683641 -88.80506451 -0.04010053 -91.03515625 -2.27539062 C-92.1136159 -6.15784538 -92.42739567 -8.34640253 -90.84765625 -12.08789062 C-76.3423385 -29.5943086 -16.53651459 -6.94874133 0 0 Z " fill="#222A3F" transform="translate(342.03515625,54.275390625)"/>
<path d="M0 0 C20.96522702 7.42387293 38.43326061 19.65852931 54.93554688 34.31201172 C55.58910156 34.89208984 56.24265625 35.47216797 56.91601562 36.06982422 C82.15763155 59.9324445 98.81597593 96.55947501 100.17382812 131.10888672 C100.20391681 132.75983957 100.22860677 134.41089915 100.24804688 136.06201172 C100.27705078 136.89861328 100.30605469 137.73521484 100.3359375 138.59716797 C100.39881914 144.66282759 100.39881914 144.66282759 98.13476562 147.83544922 C95.06570485 149.89602643 92.60183098 150.181073 88.93554688 150.31201172 C86.23573614 149.50936528 85.29956053 148.92145194 83.85864258 146.5090332 C82.87053618 144.15728249 82.61583996 142.38593496 82.47851562 139.84716797 C82.42083008 138.97519775 82.36314453 138.10322754 82.30371094 137.20483398 C82.2440918 136.27082764 82.18447266 135.33682129 82.12304688 134.37451172 C79.23436731 97.6108841 62.91457358 64.49597383 34.93554688 40.31201172 C14.5014621 23.84526425 -10.49944635 12.89866901 -36.74804688 10.83154297 C-37.7396582 10.75323242 -38.73126953 10.67492187 -39.75292969 10.59423828 C-41.71838543 10.45023713 -43.68534231 10.32518755 -45.65332031 10.22119141 C-52.44215123 9.75826149 -52.44215123 9.75826149 -55.64648438 7.46044922 C-57.70431276 4.34252742 -58.06445312 2.0328426 -58.06445312 -1.68798828 C-48.61307345 -16.6798319 -13.73622073 -4.57765729 0 0 Z " fill="#222A3F" transform="translate(308.064453125,111.68798828125)"/>
<path d="M0 0 C23.03000619 7.93811413 40.28684035 24.49499602 50.94873047 46.11132812 C55.9538837 57.98118805 58.81586648 70.84398687 57.13623047 83.73632812 C55.76335739 86.29012242 54.9585972 87.40600509 52.26904297 88.48632812 C48.3632774 88.97264913 46.6950344 89.06923259 43.19873047 86.98632812 C40.08895871 83.59384985 39.985532 80.54572242 39.59204102 76.08789062 C38.78002859 67.30312983 36.9167938 59.782425 33.13623047 51.73632812 C32.76626953 50.9396875 32.39630859 50.14304688 32.01513672 49.32226562 C24.22696963 34.06931554 11.11316081 23.51715477 -4.86376953 17.73632812 C-11.00899198 15.7862442 -16.86397594 14.65382593 -23.30126953 14.29882812 C-26.91945046 14.04782866 -28.76897447 13.78465502 -32.05126953 12.11132812 C-34.49396198 8.9105587 -34.86376953 6.74509788 -34.86376953 2.73632812 C-29.62625551 -8.73632164 -9.81120739 -2.99817968 0 0 Z " fill="#222A3F" transform="translate(284.86376953125,173.263671875)"/>
</svg>
